<svg width="80" height="76" viewBox="0 0 80 76" fill="none" xmlns="http://www.w3.org/2000/svg">
<path d="M9 43.3846V33.6923C9 31.6531 10.7909 30 13 30C15.2091 30 17 31.6531 17 33.6923V50.3077C17 52.3469 15.2091 54 13 54C10.7909 54 9 52.3469 9 50.3077V48" stroke="black" stroke-width="2" stroke-linecap="round"/>
<path d="M9 34C4.58172 34 1 37.5817 1 42C1 46.4183 4.58172 50 9 50" stroke="black" stroke-width="2"/>
<path d="M71 43.3846V33.6923C71 31.6531 69.2091 30 67 30C64.7909 30 63 31.6531 63 33.6923V50.3077C63 52.3469 64.7909 54 67 54C69.2091 54 71 52.3469 71 50.3077V48" stroke="black" stroke-width="2" stroke-linecap="round"/>
<path d="M71 34C75.4183 34 79 37.5817 79 42C79 46.4183 75.4183 50 71 50" stroke="black" stroke-width="2"/>
<path d="M14 31C14 24.9235 16.0833 19.3364 19.5753 14.91L18.0051 13.6712C14.2447 18.4379 12 24.4582 12 31H14ZM60.4362 14.9246C63.9213 19.3487 66 24.9302 66 31H68C68 24.4654 65.7603 18.4512 62.0073 13.687L60.4362 14.9246Z" fill="black"/>
<path d="M40.1833 1C48.2957 1 55.9021 4.2391 61.4982 9.88898C62.6642 11.0661 62.6551 12.9656 61.4779 14.1316C60.3008 15.2975 58.4013 15.2885 57.2353 14.1113C52.7551 9.58807 46.6782 7 40.1833 7C33.6885 7 27.6116 9.58801 23.1314 14.1112C21.9654 15.2883 20.066 15.2974 18.8888 14.1314C17.7117 12.9654 17.7026 11.0659 18.8686 9.8888C24.4647 4.23903 32.071 1 40.1833 1Z" stroke="black" stroke-width="2"/>
<rect x="37" y="69" width="10" height="6" rx="3" stroke="black" stroke-width="2"/>
<path d="M67 54V54C67 63.9411 58.9411 72 49 72H47" stroke="black" stroke-width="2"/>
<path d="M41 55C49.2843 55 56 48.2843 56 40C56 31.7157 49.2843 25 41 25C32.7157 25 26 31.7157 26 40C26 43.7541 27.3791 47.186 29.6583 49.8169L27 59L35.8937 54.1085C37.4876 54.6854 39.207 55 41 55Z" stroke="black" stroke-width="2" stroke-linejoin="round"/>
<circle cx="34" cy="40" r="2" fill="#E52D2D"/>
<circle cx="40" cy="40" r="2" fill="#E52D2D"/>
<circle cx="46" cy="40" r="2" fill="#E52D2D"/>
</svg>
