<svg width="24" height="21" viewBox="0 0 24 21" fill="none" xmlns="http://www.w3.org/2000/svg">
<path d="M22.8578 1.28582C22.3779 0.818476 21.6105 0.827941 21.1431 1.30794C20.6758 1.78789 20.6853 2.55526 21.1652 3.02261C21.1691 3.02657 21.5663 3.4876 21.5284 4.36941C21.5117 4.75887 21.3958 5.33275 21.0241 6.07385C21.4126 6.28941 21.7724 6.54839 22.0882 6.85778C22.3739 7.13791 22.6202 7.45658 22.8315 7.80243C23.5182 6.66009 23.9053 5.54696 23.9513 4.47285C24.0364 2.4937 22.9786 1.40346 22.8578 1.28582Z" fill="#C5CBD1"/>
<path d="M18.2745 7.00061C16.6616 7.00061 14.9485 7.80584 14.0138 9.10841C9.22482 15.788 4.37928 16.1306 1.83099 16.1306C1.53961 16.1306 1.27831 16.1259 1.05096 16.1259C0.16441 16.1259 -0.214519 16.1937 0.120998 16.8561C0.915895 18.4271 4.54192 20.3502 8.99593 20.3502C12.5832 20.3502 16.7073 19.1021 20.3191 15.4169C22.1411 13.5585 22.8137 9.83314 20.9561 8.01185C20.2425 7.31247 19.2778 7.00061 18.2745 7.00061Z" fill="#C5CBD1"/>
<path d="M3.10876 12.9261C3.01774 11.7465 3.23779 9.07042 6.75387 7.56354C6.75387 7.56354 5.44855 10.7206 7.21653 12.3179C8.49925 11.3168 9.40155 9.68167 9.49412 8.10033C9.76015 3.53888 6.57544 1.13816 4.50781 0.0684926C4.29631 -0.04127 4.0381 -0.00418346 3.86687 0.161644C3.69476 0.32665 3.64816 0.583165 3.74923 0.79873C4.54809 2.49452 5.0857 5.52832 1.66823 9.05946C0.624837 10.1369 1.47503 12.119 3.10876 12.9261Z" fill="#C5CBD1"/>
</svg>
