<svg width="182" height="84" viewBox="0 0 182 84" fill="white" xmlns="http://www.w3.org/2000/svg">
<path fill-rule="evenodd" clip-rule="evenodd" d="M84.5201 42.8391C84.6821 43.7031 85.4921 44.2971 86.3561 44.1351C87.2201 43.9731 87.8141 43.1631 87.6521 42.2991C87.3821 40.5711 87.2741 38.2491 87.3281 36.4671C87.3821 35.5491 87.3821 34.4691 87.3281 33.2271C87.0581 23.5071 86.5721 16.2171 85.8701 11.4111C85.1681 6.44308 82.9001 2.55508 77.7701 3.04108C75.4481 3.25708 74.5301 3.68908 73.9361 6.22708C73.5696 7.74564 73.6092 9.51809 73.6612 11.8399V11.84L73.6661 12.0591C73.7201 13.3011 73.7201 13.9491 73.7201 14.0571C73.7201 18.2576 73.8772 22.6152 74.0882 28.4701L74.0981 28.7451L74.3141 35.4411C74.4761 37.7631 74.4761 40.3011 74.0441 42.1911C73.8281 43.0551 74.3141 43.8651 75.1781 44.0811C76.0421 44.2971 76.8521 43.8111 77.0681 42.9471C77.6621 40.6251 77.6081 37.3311 77.4461 35.3331C77.3921 34.7391 77.2841 31.5531 77.1221 25.8831C77.2841 25.9371 77.3921 25.9371 77.5541 25.9371C78.0941 25.9371 79.2821 25.9911 81.1181 26.0991C82.3601 26.1531 83.2781 26.2071 83.9801 26.2611C83.9945 26.7065 84.0127 27.2016 84.0326 27.7454L84.0327 27.7465C84.0878 29.2463 84.1565 31.1162 84.1961 33.3351C84.2501 34.5771 84.2501 35.6031 84.1961 36.3591C84.1421 38.2491 84.2501 40.8951 84.5201 42.8391ZM3.35811 44.6211C4.22211 44.6751 4.97811 44.0271 5.03211 43.1631C5.41011 38.7891 5.46411 33.8211 5.30211 28.2591C9.29811 27.1251 11.7821 25.2351 12.8081 22.5891C13.7261 19.9971 13.5101 15.0831 12.2141 11.0331C10.7561 6.28108 7.84011 2.66308 3.68211 3.68908C2.33211 3.95908 1.46811 4.49908 1.03611 5.25508C0.874113 5.47108 0.820113 5.74108 0.820113 6.01108C0.766113 6.11908 0.766113 6.28108 0.766113 6.44308V7.46908C0.818768 8.89075 0.871422 9.54228 1.27451 14.5301L1.30611 14.9211C2.22411 27.0171 2.44011 36.3591 1.90011 42.9471C1.84611 43.8111 2.49411 44.5671 3.35811 44.6211ZM5.14011 25.0191C4.97811 22.2111 4.76211 18.7551 4.43811 14.7051C4.00611 9.95308 3.95211 8.71108 3.89811 7.36108V6.82108L4.33011 6.71308C5.30211 6.49708 6.22011 6.82108 7.03011 7.68508C8.75811 9.57508 10.0001 13.6791 10.2161 17.5131C10.4321 21.4011 10.3241 23.3451 5.14011 25.0191ZM24.1481 44.0811C21.8261 44.3511 19.9361 44.4591 18.4781 44.4051C17.6141 44.4051 16.9661 43.6491 16.9661 42.7851C16.9661 41.9211 17.7221 41.2731 18.5861 41.2731C19.7741 41.3271 21.2321 41.2191 22.9061 41.0571C22.8901 40.849 22.8741 40.5981 22.8553 40.3031L22.8552 40.3026L22.8552 40.3026C22.8106 39.6027 22.7501 38.6544 22.6361 37.4391C22.2214 32.6698 22.155 30.0405 22.1504 24.9169L22.151 22.1368C22.1535 19.9498 22.1636 17.5806 22.2041 15.0291C22.2581 11.6271 22.2581 9.03508 22.2581 7.19908V7.09108H19.0181C18.1541 7.09108 17.4521 6.38908 17.4521 5.52508C17.4521 4.66108 18.1541 3.95908 19.0181 3.95908L23.0963 3.9581C26.4505 3.95534 28.5363 3.94487 29.3321 3.90508C30.1961 3.90508 30.9521 4.55308 30.9521 5.41708C30.9521 6.28108 30.3041 7.03708 29.4401 7.03708C28.2521 7.09108 26.9021 7.09108 25.3901 7.09108V19.6191C25.2821 27.8811 25.2821 31.9851 25.3901 31.9851C25.4441 33.0111 25.5521 34.7391 25.7681 37.1691C25.9072 38.4212 25.9667 39.4742 26.0149 40.3281L26.015 40.3297C26.0229 40.4695 26.0305 40.604 26.0381 40.7331C27.9281 40.5171 29.4941 40.4091 30.7361 40.4091C31.6001 40.4091 32.3021 41.1111 32.3021 41.9751C32.3021 42.8391 31.6001 43.5411 30.7361 43.5411C29.4941 43.5411 27.6581 43.7031 25.2281 43.9731C25.0121 44.0811 24.7961 44.1351 24.5261 44.1351C24.4181 44.1351 24.3101 44.1351 24.1481 44.0811ZM40.1321 44.5131C41.8601 44.6751 46.7201 44.6211 48.8801 44.4051C49.7441 44.3511 50.3381 43.5411 50.2841 42.6771C50.2301 41.8131 49.4201 41.2191 48.5561 41.2731C46.6121 41.4891 41.8601 41.5431 40.3481 41.3811H40.1861L40.6721 38.8431C40.7753 38.4648 40.8565 38.0866 40.9438 37.6804L40.9438 37.6804L40.9438 37.6802L40.9439 37.6798C40.9936 37.4484 41.0453 37.2078 41.1041 36.9531C41.1603 36.7284 41.2099 36.5103 41.2576 36.3009L41.2576 36.3008L41.2576 36.3008L41.2577 36.3007C41.3475 35.9061 41.4303 35.5425 41.5361 35.2251C41.6441 34.7391 41.6981 34.4691 41.6981 34.3611C43.1561 27.8811 45.2621 20.1591 48.1241 11.1411C48.1241 11.0871 48.3941 10.4931 48.9881 9.30508C49.4741 8.17108 49.6361 7.19908 49.4741 6.33508C49.0961 4.12108 47.3141 3.79708 45.3701 3.79708C44.8841 3.79708 44.0201 3.79708 42.7781 3.85108C42.2118 3.86339 41.6988 3.87571 41.2391 3.88674C39.6826 3.92409 38.7376 3.94677 38.4041 3.90508C37.9721 3.85108 37.5941 3.95908 37.2701 4.22908C36.8921 4.49908 36.7301 4.87708 36.6761 5.30908C36.6221 6.17308 37.2161 6.98308 38.0801 7.03708C38.5439 7.07924 39.6002 7.05557 41.3004 7.01746L41.3005 7.01746L41.3005 7.01746L41.3007 7.01745L41.3016 7.01744C41.7787 7.00674 42.3065 6.99491 42.8861 6.98308C44.2361 6.92908 45.0461 6.92908 45.3701 6.92908H46.1261C46.1801 6.87508 46.1801 6.87508 46.2341 6.87508C46.2881 6.87508 46.3421 6.87508 46.2881 6.92908C46.3197 6.91327 46.3467 6.89745 46.3691 6.88435C46.4231 6.85272 46.4501 6.8369 46.4501 6.87508C46.5041 7.14508 46.3961 7.46908 46.1261 7.95508C45.764 8.77806 45.4822 9.36022 45.3051 9.72604L45.305 9.72622C45.1916 9.96038 45.1212 10.1059 45.1001 10.1691C42.2381 19.2951 40.0781 27.1251 38.6741 33.7131C38.6264 33.7607 38.5788 33.9767 38.494 34.3609L38.494 34.3611L38.4939 34.3611L38.4581 34.5231L38.0261 36.3051C37.8641 37.007 37.7561 37.6009 37.6482 38.1949L37.6481 38.1949L37.6481 38.1951C37.3781 39.3831 37.1621 40.3551 37.0541 41.0571L37.0306 41.2426C36.9855 41.5971 36.9461 41.9065 36.9461 42.1371V42.6771C37.1081 43.5411 37.5941 44.0271 38.2961 44.2431L38.8361 44.4051C39.2141 44.4591 39.6461 44.5131 40.1321 44.5131ZM66.8621 44.4051C64.7021 44.6211 59.8421 44.6751 58.1141 44.5131C57.6281 44.5131 57.1961 44.4591 56.8181 44.4051L56.2781 44.2431C55.5761 44.0271 55.0901 43.5411 54.9281 42.6771V42.1371C54.9281 41.9065 54.9675 41.5971 55.0126 41.2426L55.0361 41.0571C55.1441 40.3551 55.3601 39.3831 55.6301 38.1951L55.6301 38.1949L55.6302 38.1949C55.7381 37.6009 55.8461 37.007 56.0081 36.3051L56.4401 34.5231L56.4759 34.3611L56.476 34.3611L56.476 34.3609C56.5608 33.9767 56.6084 33.7607 56.6561 33.7131C58.0601 27.1251 60.2201 19.2951 63.0821 10.1691C63.1032 10.1059 63.1736 9.96038 63.287 9.72622L63.2871 9.72604C63.4642 9.36022 63.746 8.77806 64.1081 7.95508C64.3781 7.46908 64.4861 7.14508 64.4321 6.87508C64.4321 6.8369 64.4051 6.85272 64.3511 6.88435C64.3287 6.89745 64.3017 6.91327 64.2701 6.92908C64.3241 6.87508 64.2701 6.87508 64.2161 6.87508C64.1621 6.87508 64.1621 6.87508 64.1081 6.92908H63.3521C63.0281 6.92908 62.2181 6.92908 60.8681 6.98308C60.2886 6.99491 59.7609 7.00674 59.2838 7.01743L59.2827 7.01745L59.2825 7.01746L59.2825 7.01746L59.2824 7.01746C57.5822 7.05557 56.5259 7.07924 56.0621 7.03708C55.1981 6.98308 54.6041 6.17308 54.6581 5.30908C54.7121 4.87708 54.8741 4.49908 55.2521 4.22908C55.5761 3.95908 55.9541 3.85108 56.3861 3.90508C56.7196 3.94677 57.6646 3.92409 59.2211 3.88674C59.6808 3.87571 60.1938 3.86339 60.7601 3.85108C62.0021 3.79708 62.8661 3.79708 63.3521 3.79708C65.2961 3.79708 67.0781 4.12108 67.4561 6.33508C67.6181 7.19908 67.4561 8.17108 66.9701 9.30508C66.3761 10.4931 66.1061 11.0871 66.1061 11.1411C63.2441 20.1591 61.1381 27.8811 59.6801 34.3611C59.6801 34.4691 59.6261 34.7391 59.5181 35.2251C59.4123 35.5426 59.3295 35.9062 59.2396 36.3008L59.2396 36.3008L59.2396 36.3009C59.1919 36.5103 59.1423 36.7284 59.0861 36.9531C59.0273 37.208 58.9756 37.4486 58.9258 37.6802L58.9258 37.6804L58.9258 37.6804C58.8385 38.0866 58.7573 38.4648 58.6541 38.8431L58.1681 41.3811H58.3301C59.8421 41.5431 64.5941 41.4891 66.5381 41.2731C67.4021 41.2191 68.2121 41.8131 68.2661 42.6771C68.3201 43.5411 67.7261 44.3511 66.8621 44.4051ZM82.5936 23.0535C83.1216 23.0874 83.5561 23.1153 83.8181 23.1291C83.6021 18.9711 83.2241 15.2451 82.7381 11.8431C82.1441 7.95508 80.8481 5.90308 78.0941 6.17308C77.6081 6.22708 77.3381 6.22708 77.2301 6.22708C77.1221 6.38908 77.0141 6.60508 76.9601 6.92908C76.7441 8.06308 76.7441 9.41308 76.7981 11.9511C76.8521 13.1931 76.8521 13.8951 76.8521 14.0571C76.8521 16.5951 76.9061 19.5111 77.0141 22.9131C77.1761 22.8591 77.3921 22.8051 77.5541 22.8051C78.7202 22.8051 81.054 22.9548 82.5936 23.0535Z" fill="white"/>
<path fill-rule="evenodd" clip-rule="evenodd" d="M9.36 83.051C9.22667 83.1977 8.93333 83.271 8.48 83.271C8.26667 83.271 7.8 83.2443 7.08 83.191C6.36 83.1377 5.6 83.111 4.8 83.111C3.84 83.111 3.10667 83.131 2.6 83.171C2.09333 83.211 1.54667 83.2443 0.96 83.271C0.746667 83.271 0.533333 83.2177 0.32 83.111C0.106667 83.0043 0 82.7777 0 82.431C0 82.2443 0.0533333 81.991 0.16 81.671C0.533333 80.4977 0.76 79.751 0.84 79.431C0.92 79.111 0.986667 78.2577 1.04 76.871C1.09333 75.4843 1.12 74.4577 1.12 73.791V62.671C1.12 61.8177 1.1 60.9977 1.06 60.211C1.02 59.4243 0.946667 58.8043 0.84 58.351C0.733333 57.8977 0.613333 57.4643 0.48 57.051C0.346667 56.6377 0.28 56.3243 0.28 56.111C0.28 55.791 0.4 55.571 0.64 55.451C0.88 55.331 1.12 55.271 1.36 55.271C2.05333 55.271 2.62667 55.3043 3.08 55.371C3.53333 55.4377 4.08 55.471 4.72 55.471C5.6 55.471 6.20667 55.4377 6.54 55.371C6.87333 55.3043 7.2 55.271 7.52 55.271C8.08 55.271 8.52 55.6443 8.84 56.391C9.08 56.9777 9.32 57.551 9.56 58.111C10.0133 59.1243 10.3867 59.8443 10.68 60.271C11.1867 61.0443 11.72 61.431 12.28 61.431C12.5733 61.431 12.8933 61.2577 13.24 60.911C13.6933 60.4577 14.2667 59.6443 14.96 58.471C15.84 56.9777 16.42 56.071 16.7 55.751C16.98 55.431 17.3467 55.271 17.8 55.271C18.28 55.271 18.6667 55.2977 18.96 55.351C19.2533 55.4043 19.7067 55.431 20.32 55.431C21.1467 55.431 21.7933 55.4177 22.26 55.391C22.7267 55.3643 23.2 55.3243 23.68 55.271C24.0267 55.271 24.28 55.3377 24.44 55.471C24.6 55.6043 24.68 55.8043 24.68 56.071C24.68 56.8443 24.52 57.6443 24.2 58.471C23.88 59.2977 23.72 60.6043 23.72 62.391V74.511C23.72 76.271 23.88 77.911 24.2 79.431C24.3067 79.911 24.4333 80.471 24.58 81.111C24.7267 81.751 24.8 82.2043 24.8 82.471C24.8 82.711 24.74 82.9043 24.62 83.051C24.5 83.1977 24.2533 83.271 23.88 83.271C23.6133 83.271 23.1067 83.2443 22.36 83.191C21.6133 83.1377 20.8133 83.111 19.96 83.111C19.08 83.111 18.3867 83.1377 17.88 83.191C17.3733 83.2443 16.8533 83.271 16.32 83.271C15.6267 83.271 15.28 83.0443 15.28 82.591C15.6267 81.4977 15.92 80.3843 16.16 79.251C16.4 78.1177 16.52 76.7777 16.52 75.231V67.871C16.52 67.3643 16.3867 67.111 16.12 67.111C15.9867 67.111 15.7733 67.3043 15.48 67.691C15.1867 68.0777 14.96 68.3643 14.8 68.551L13.76 70.071C13.3333 70.5777 12.88 70.831 12.4 70.831C11.92 70.831 11.5133 70.691 11.18 70.411C10.8467 70.131 10.3867 69.471 9.8 68.431C9.64 68.1643 9.46667 67.8777 9.28 67.571C9.09333 67.2643 8.89333 67.111 8.68 67.111C8.52 67.111 8.42 67.171 8.38 67.291C8.34 67.411 8.32 67.5777 8.32 67.791V75.151C8.32 76.6177 8.44 77.9243 8.68 79.071C8.76 79.4977 8.97333 80.2177 9.32 81.231C9.48 81.7643 9.56 82.1777 9.56 82.471C9.56 82.711 9.49333 82.9043 9.36 83.051ZM44.06 83.031C43.6467 83.191 43.08 83.271 42.36 83.271L37.56 83.151L32.76 83.071C31.1867 83.071 30.0267 83.1043 29.28 83.171C28.5333 83.2377 28.0133 83.271 27.72 83.271C27.4 83.271 27.1 83.2177 26.82 83.111C26.54 83.0043 26.4 82.8177 26.4 82.551C26.4 81.7777 26.52 81.1643 26.76 80.711C27.2933 79.6977 27.56 77.9643 27.56 75.511V62.671C27.56 61.0443 27.4667 59.8043 27.28 58.951C27.04 58.071 26.8 57.1777 26.56 56.271C26.56 55.951 26.6933 55.7043 26.96 55.531C27.2267 55.3577 27.6533 55.271 28.24 55.271L31.12 55.391C31.5733 55.391 32.28 55.4043 33.24 55.431C34.0933 55.4547 34.757 55.4679 35.2311 55.4705L38.4 55.471C39.2533 55.471 40.12 55.431 41 55.351L42.68 55.271C43.0533 55.271 43.3533 55.351 43.58 55.511C43.8067 55.671 43.92 55.9777 43.92 56.431C43.92 56.7777 43.8933 57.2577 43.84 57.871C43.7867 58.4843 43.76 59.0977 43.76 59.711C43.76 59.8977 43.7733 60.111 43.8 60.351C43.8267 60.591 43.8733 60.8777 43.94 61.211C44.0067 61.5443 44.0667 61.8377 44.12 62.091C44.1733 62.3443 44.2 62.5777 44.2 62.791C44.2 63.6177 43.7733 64.031 42.92 64.031C42.5467 64.031 42.1733 63.9243 41.8 63.711C41.3733 63.4177 41.0667 63.2043 40.88 63.071C39.8933 62.4043 38.8133 62.071 37.64 62.071C36.68 62.071 35.96 62.2577 35.48 62.631C35 63.0043 34.76 63.4577 34.76 63.991C34.76 64.6043 35.04 65.031 35.6 65.271C36.16 65.511 36.9333 65.631 37.92 65.631C38.32 65.631 38.9933 65.6043 39.94 65.551C40.8867 65.4977 41.3867 65.471 41.44 65.471C42.3733 65.471 43.14 65.5843 43.74 65.811C44.34 66.0377 44.64 66.4843 44.64 67.151C44.64 67.6043 44.4067 67.9977 43.94 68.331C43.4733 68.6643 42.68 68.831 41.56 68.831H36.4C35.84 68.831 35.4267 68.9377 35.16 69.151C34.8933 69.3643 34.76 69.8043 34.76 70.471V76.551C34.76 77.4043 35 77.9777 35.48 78.271C35.8 78.4577 36.2933 78.551 36.96 78.551H37.48C38.3867 78.551 39.1 78.511 39.62 78.431C40.14 78.351 40.7733 78.1243 41.52 77.751C41.84 77.591 42.16 77.4177 42.48 77.231C43.04 76.8843 43.4933 76.711 43.84 76.711C44.2133 76.711 44.4667 76.811 44.6 77.011C44.7333 77.211 44.8 77.4177 44.8 77.631C44.8 77.8977 44.7667 78.2177 44.7 78.591C44.6333 78.9643 44.6 79.431 44.6 79.991L44.68 81.991C44.68 82.5243 44.4733 82.871 44.06 83.031ZM48.24 83.271C48.4267 83.271 48.8867 83.251 49.62 83.211C50.3533 83.171 51.16 83.151 52.04 83.151C52.76 83.151 53.4 83.171 53.96 83.211C54.52 83.251 55.1067 83.271 55.72 83.271C55.96 83.271 56.18 83.2243 56.38 83.131C56.58 83.0377 56.68 82.8577 56.68 82.591C56.3867 81.791 56.0933 80.9777 55.8 80.151C55.5333 79.2443 55.4 78.191 55.4 76.991V68.111C55.4 67.6043 55.4467 67.251 55.54 67.051C55.6333 66.851 55.7467 66.751 55.88 66.751C56.52 66.751 57.4133 67.511 58.56 69.031C59.8133 70.6843 60.44 72.2177 60.44 73.631V77.471C60.44 79.2577 60.2933 80.391 60 80.871C59.7067 81.351 59.56 81.871 59.56 82.431C59.56 82.751 59.72 82.991 60.04 83.151C60.2267 83.231 60.44 83.271 60.68 83.271C61.2667 83.2443 61.8333 83.211 62.38 83.171C62.9267 83.131 63.52 83.111 64.16 83.111C64.5067 83.111 65.04 83.1377 65.76 83.191C66.48 83.2443 67.0933 83.271 67.6 83.271C67.84 83.271 68.0533 83.231 68.24 83.151C68.4267 83.071 68.52 82.8843 68.52 82.591L67.88 80.111C67.72 79.2577 67.64 78.0977 67.64 76.631V62.711C67.64 61.191 67.7333 59.8977 67.92 58.831C68.1067 57.7643 68.32 56.8043 68.56 55.951C68.56 55.4977 68.24 55.271 67.6 55.271C66.8533 55.271 66.2867 55.291 65.9 55.331C65.5133 55.371 64.7867 55.391 63.72 55.391L59.84 55.271C59.3333 55.271 59.0133 55.3377 58.88 55.471C58.7467 55.6043 58.68 55.7643 58.68 55.951C58.68 56.0577 58.76 56.2043 58.92 56.391C59.1867 56.6843 59.4067 56.9643 59.58 57.231C59.7533 57.4977 59.92 57.8777 60.08 58.371C60.24 58.8643 60.32 59.3643 60.32 59.871V60.511C60.32 60.6443 60.2533 60.751 60.12 60.831C60.0933 60.831 60.04 60.8443 59.96 60.871C59.8 60.871 59.5067 60.631 59.08 60.151C58.36 59.351 57.64 58.6177 56.92 57.951C56.04 57.0977 55.3067 56.471 54.72 56.071C53.9467 55.5377 53.2667 55.271 52.68 55.271L51.48 55.351L50.12 55.391L48.4 55.351L47.32 55.271C46.7333 55.271 46.44 55.551 46.44 56.111C46.44 56.431 46.5067 56.711 46.64 56.951C47.2533 58.0977 47.6267 58.9243 47.76 59.431C48.0533 60.471 48.2 61.9777 48.2 63.951V77.551C48.2 78.3243 48.1467 78.951 48.04 79.431C47.9333 79.911 47.76 80.4443 47.52 81.031C47.2 81.8843 47.04 82.3777 47.04 82.511C47.04 82.8577 47.1667 83.071 47.42 83.151C47.6733 83.231 47.9467 83.271 48.24 83.271ZM86.62 81.771C85.0867 82.9843 82.8133 83.591 79.8 83.591C76.3067 83.591 73.8667 82.8177 72.48 81.271C71.4933 80.1777 71 78.6177 71 76.591V61.951C71 61.4443 70.9733 60.7643 70.92 59.911C70.8667 59.0577 70.8 58.4843 70.72 58.191C70.64 57.8977 70.5267 57.511 70.38 57.031C70.2333 56.551 70.16 56.1777 70.16 55.911C70.16 55.4843 70.4267 55.271 70.96 55.271C71.3067 55.271 71.8133 55.291 72.48 55.331C73.0726 55.3666 73.8232 55.3863 74.7319 55.3903L75.08 55.391C75.96 55.391 76.6267 55.371 77.08 55.331C77.5333 55.291 78.0533 55.271 78.64 55.271C79.1467 55.271 79.4 55.4843 79.4 55.911C79.4 55.991 79.3533 56.1643 79.26 56.431C79.1667 56.6977 79.0733 57.0043 78.98 57.351C78.8867 57.6977 78.8133 58.031 78.76 58.351C78.5467 59.311 78.4 60.0243 78.32 60.491C78.24 60.9577 78.2 61.631 78.2 62.511V75.111C78.2 75.8843 78.32 76.4643 78.56 76.851C78.8 77.2377 79.2533 77.431 79.92 77.431C80.72 77.431 81.2533 77.1243 81.52 76.511C81.6533 76.191 81.72 75.751 81.72 75.191V61.191C81.72 60.391 81.7 59.7777 81.66 59.351C81.62 58.9243 81.52 58.4577 81.36 57.951C81.1733 57.4977 81.04 57.1643 80.96 56.951C80.8 56.551 80.72 56.231 80.72 55.991C80.72 55.751 80.78 55.571 80.9 55.451C81.02 55.331 81.24 55.271 81.56 55.271C82.2533 55.271 82.8867 55.2843 83.46 55.311C84.0333 55.3377 84.5867 55.3643 85.12 55.391L85.6942 55.39C86.694 55.3866 87.4026 55.3736 87.82 55.351C88.3133 55.3243 88.7867 55.2977 89.24 55.271C89.7733 55.271 90.04 55.4843 90.04 55.911C90.04 56.391 89.9333 56.911 89.72 57.471C89.1867 58.8843 88.92 60.671 88.92 62.831V76.191C88.92 78.6977 88.1533 80.5577 86.62 81.771Z" fill="white"/>
<path d="M134.893 22.0794C134.893 21.3849 134.705 20.7365 134.433 20.1206C131.246 20.5058 128.079 21.1 125.101 21.8833C125.099 21.9503 125.08 22.0123 125.08 22.0794C125.08 24.7844 127.282 26.9859 129.987 26.9859C132.691 26.9859 134.893 24.7844 134.893 22.0794Z" fill="white"/>
<path fill-rule="evenodd" clip-rule="evenodd" d="M174.143 26.5381C172.228 26.5381 170.387 26.1043 168.669 25.2463C167.315 24.5704 165.794 23.9571 164.2 23.3834C163.581 26.8192 160.584 29.4393 156.973 29.4393C152.914 29.4393 149.613 26.1376 149.613 22.0794V20.0593C147.135 19.7769 144.654 19.6191 142.251 19.6191C141.336 19.6191 140.404 19.6575 139.471 19.6996C139.666 20.4771 139.8 21.2713 139.8 22.0794C139.8 27.492 135.399 31.8925 129.987 31.8925C125.02 31.8925 120.95 28.1743 120.305 23.3821C118.715 23.9552 117.197 24.5672 115.847 25.2419C114.198 26.066 112.337 26.5049 110.463 26.5049C110.402 26.5049 110.343 26.4928 110.284 26.4806L110.284 26.4806C110.229 26.4693 110.174 26.4579 110.117 26.4564L115.267 36.0158V61.3318C115.267 65.3899 118.568 68.6916 122.627 68.6916C126.113 68.6916 129.037 66.2575 129.797 62.9992L140.092 82.4472C140.521 83.2425 141.35 83.7383 142.253 83.7383C143.156 83.7383 143.985 83.2425 144.414 82.4472L151.784 68.4316C151.083 68.5906 150.361 68.6916 149.613 68.6916C144.193 68.6916 139.8 64.2981 139.8 58.8785C139.8 53.459 144.193 49.0654 149.613 49.0654C153.821 49.0654 157.38 51.727 158.775 55.4478L174.358 26.5081C174.322 26.5087 174.288 26.5159 174.253 26.5231C174.217 26.5306 174.181 26.5381 174.143 26.5381ZM137.347 46.6121C133.288 46.6121 129.987 43.3105 129.987 39.2523C129.987 37.8966 131.084 36.7991 132.44 36.7991C133.796 36.7991 134.893 37.8966 134.893 39.2523C134.893 40.6061 135.993 41.7056 137.347 41.7056C138.7 41.7056 139.8 40.6061 139.8 39.2523C139.8 37.8966 140.897 36.7991 142.253 36.7991C143.609 36.7991 144.706 37.8966 144.706 39.2523C144.706 43.3105 141.405 46.6121 137.347 46.6121ZM149.613 36.7991C149.613 38.1541 150.711 39.2523 152.066 39.2523C153.421 39.2523 154.519 38.1541 154.519 36.7991C154.519 35.444 153.421 34.3458 152.066 34.3458C150.711 34.3458 149.613 35.444 149.613 36.7991Z" fill="white"/>
<path d="M149.613 53.9719C146.908 53.9719 144.706 56.1735 144.706 58.8785C144.706 61.5835 146.908 63.785 149.613 63.785C152.317 63.785 154.519 61.5835 154.519 58.8785C154.519 56.1735 152.317 53.9719 149.613 53.9719Z" fill="white"/>
<path d="M180.729 17.5607C182.542 13.9338 181.066 9.50387 177.437 7.68564C167.957 2.94456 154.478 0 142.26 0C130.034 0 116.551 2.94456 107.071 7.68564C103.439 9.50387 101.96 13.9313 103.777 17.5632C105.552 21.0969 110.097 22.6327 113.652 20.8528C121.115 17.1224 132.339 14.7126 142.25 14.7126C146.239 14.7126 150.435 15.1183 154.519 15.8281V22.0794C154.519 23.4345 155.617 24.5327 156.973 24.5327C158.327 24.5327 159.426 23.4345 159.426 22.0794V16.8573C163.66 17.8897 167.619 19.2377 170.853 20.8554C174.465 22.6525 178.883 21.2444 180.729 17.5607Z" fill="white"/>
</svg>